# xmcd CD database file
#
# Track frame offsets:
#	150
#	21436
#	40950
#	61899
#	77342
#	92439
#	113787
#	131138
#	149221
#	165204
#	182086
#	198359
#	221785
#	239487
#
# Disc length: 3262 seconds
#
# Revision: 0
# Processed by: cddbd v1.5.2PL0 Copyright (c) Steve Scherf et al.
# Submitted via: CDex 1.70beta2
#
DISCID=c50cbc0e
DTITLE=Kevin Clark - Zahara
DYEAR=2009
DGENRE=Jazz
TTITLE0=Guiro Gitano
TTITLE1=Flambalucion
TTITLE2=Zahara
TTITLE3=Cubanalistic
TTITLE4=Lullaby of the Butterflies
TTITLE5=Gringo The Rushes Oh!
TTITLE6=River Weep For Me
TTITLE7=Mustapha's Moustache
TTITLE8=Pienselo (Think About It)
TTITLE9=Here Comes Another Crazy Song
TTITLE10=Gua-Ricardo
TTITLE11=Calypsodic Trance
TTITLE12=Para A Minha Mulher
TTITLE13=River Weep For Me - Reprise
EXTD=YEAR: 2009
EXTT0=
EXTT1=
EXTT2=
EXTT3=
EXTT4=
EXTT5=
EXTT6=
EXTT7=
EXTT8=
EXTT9=
EXTT10=
EXTT11=
EXTT12=
EXTT13=
PLAYORDER=
